<svg width="169" height="36" viewBox="0 0 169 36" fill="none" xmlns="http://www.w3.org/2000/svg">
<path fill-rule="evenodd" clip-rule="evenodd" d="M24.7335 33.8116C27.1015 32.5956 28.9575 30.8516 30.3015 28.5796L25.6455 24.9796C24.6855 26.6756 23.4375 27.9396 21.9015 28.7716C20.3655 29.6036 18.6855 30.0196 16.8615 30.0196C13.5655 30.0196 10.9895 29.0276 9.13346 27.0436C7.30946 25.0596 6.39746 22.2916 6.39746 18.7396C6.39746 16.2756 6.86146 14.1156 7.78946 12.2596C8.74946 10.3716 10.0615 8.89962 11.7255 7.84361C13.3895 6.78761 15.3095 6.25961 17.4855 6.25961C19.1815 6.25961 20.7335 6.62761 22.1415 7.36362C23.5495 8.09962 24.6855 9.26762 25.5495 10.8676L30.3495 7.41161C28.9415 5.13962 27.1815 3.44361 25.0695 2.32361C22.9895 1.20362 20.4775 0.643616 17.5335 0.643616C14.0775 0.643616 11.0375 1.41162 8.41346 2.94761C5.78946 4.48362 3.74146 6.61162 2.26946 9.33162C0.797462 12.0516 0.0614624 15.2196 0.0614624 18.8356C0.0614624 22.3236 0.717462 25.3316 2.02946 27.8596C3.37346 30.3556 5.29346 32.2756 7.78946 33.6196C10.2855 34.9636 13.2775 35.6356 16.7655 35.6356C19.7095 35.6356 22.3655 35.0276 24.7335 33.8116ZM44.3673 1.12362L29.8233 35.2036H36.1593L39.3269 27.4287H54.2056L54.2051 27.4276H54.2073L57.2793 35.2036H63.6153L49.6473 1.12362H44.3673ZM52.1902 22.1956L54.2051 27.4276H39.3273L39.3269 27.4287H39.3267L41.4868 22.1947H41.4877L41.4873 22.1956H52.1902ZM52.1902 22.1956L52.1898 22.1947H41.4877L46.9113 8.80362L52.1913 22.1956H52.1902ZM68.4382 1.12362L67.1422 35.2036H72.9022L73.7662 14.1316L83.7502 35.2036H88.4542L98.5822 13.9876L99.2542 35.2036H105.254L104.198 1.12362H98.7742L86.3422 27.3796L73.8622 1.12362H68.4382ZM112.627 35.2036H118.723V22.5316H123.427C128.259 22.5316 131.939 21.5716 134.467 19.6516C136.995 17.6996 138.259 15.0116 138.259 11.5876C138.259 8.19562 137.091 5.60361 134.755 3.81161C132.419 2.01962 129.043 1.12362 124.627 1.12362H112.627V35.2036ZM118.723 6.21162H124.387C127.011 6.21162 128.931 6.64362 130.147 7.50762C131.395 8.33962 132.019 9.73162 132.019 11.6836C132.019 13.6356 131.363 15.0756 130.051 16.0036C128.739 16.9316 126.643 17.3956 123.763 17.3956H118.723V6.21162ZM156.836 19.9396L168.74 1.12362H162.212L153.956 14.5156L145.364 1.12362H138.308L150.548 20.0836V35.2036H156.836V19.9396Z" fill="#2DE6B4"/>
</svg>
